# Blender v2.80 (sub 75) OBJ File: 'Hats.blend'
# www.blender.org
mtllib Hat_angel.mtl
o Cylinder
v 0.273064 1.280331 -8.782703
v 0.273064 1.391957 -8.782703
v 0.385323 1.280331 -8.771646
v 0.385323 1.391957 -8.771646
v 0.493269 1.280331 -8.738901
v 0.493269 1.391957 -8.738901
v 0.592752 1.280331 -8.685727
v 0.592752 1.391957 -8.685727
v 0.679950 1.280331 -8.614165
v 0.679950 1.391957 -8.614165
v 0.751511 1.280331 -8.526968
v 0.751511 1.391957 -8.526968
v 0.804686 1.280331 -8.427485
v 0.804686 1.391957 -8.427485
v 0.837431 1.280331 -8.319539
v 0.837431 1.391957 -8.319539
v 0.848488 1.280331 -8.207279
v 0.848488 1.391957 -8.207279
v 0.837431 1.280331 -8.095019
v 0.837431 1.391957 -8.095019
v 0.804686 1.280331 -7.987074
v 0.804686 1.391957 -7.987074
v 0.751511 1.280331 -7.887591
v 0.751511 1.391957 -7.887591
v 0.679950 1.280331 -7.800393
v 0.679950 1.391957 -7.800393
v 0.592752 1.280331 -7.728832
v 0.592752 1.391957 -7.728832
v 0.493269 1.280331 -7.675657
v 0.493269 1.391957 -7.675657
v 0.385323 1.280331 -7.642912
v 0.385323 1.391957 -7.642912
v 0.273063 1.280331 -7.631855
v 0.273063 1.391957 -7.631855
v 0.160804 1.280331 -7.642912
v 0.160804 1.391957 -7.642912
v 0.052858 1.280331 -7.675657
v 0.052858 1.391957 -7.675657
v -0.046625 1.280331 -7.728832
v -0.046625 1.391957 -7.728832
v -0.133823 1.280331 -7.800393
v -0.133823 1.391957 -7.800393
v -0.205384 1.280331 -7.887591
v -0.205384 1.391957 -7.887591
v -0.258559 1.280331 -7.987074
v -0.258559 1.391957 -7.987074
v -0.291304 1.280331 -8.095020
v -0.291304 1.391957 -8.095020
v -0.302360 1.280331 -8.207280
v -0.302360 1.391957 -8.207280
v -0.291304 1.280331 -8.319539
v -0.291304 1.391957 -8.319539
v -0.258559 1.280331 -8.427485
v -0.258559 1.391957 -8.427485
v -0.205383 1.280331 -8.526968
v -0.205383 1.391957 -8.526968
v -0.133822 1.280331 -8.614166
v -0.133822 1.391957 -8.614166
v -0.046624 1.280331 -8.685727
v -0.046624 1.391957 -8.685727
v 0.052859 1.280331 -8.738902
v 0.052859 1.391957 -8.738902
v 0.160805 1.280331 -8.771646
v 0.160805 1.391957 -8.771646
v 0.668768 1.391957 -7.942878
v 0.668768 1.280331 -7.942878
v 0.273064 1.391957 -8.683188
v 0.273064 1.280331 -8.683188
v 0.180219 1.391957 -8.674045
v 0.180219 1.280331 -8.674045
v 0.090942 1.391957 -8.646962
v 0.090942 1.280331 -8.646962
v -0.166619 1.391957 -8.025157
v -0.166619 1.280331 -8.025157
v -0.122641 1.391957 -7.942878
v -0.122641 1.280331 -7.942878
v -0.193701 1.391957 -8.114434
v -0.193701 1.280331 -8.114434
v -0.063455 1.391957 -7.870760
v -0.063455 1.280331 -7.870760
v 0.180218 1.391957 -7.740514
v 0.180218 1.280331 -7.740514
v 0.273064 1.391957 -7.731370
v 0.273064 1.280331 -7.731370
v 0.090941 1.391957 -7.767596
v 0.090941 1.280331 -7.767596
v 0.739829 1.391957 -8.300124
v 0.739829 1.280331 -8.300124
v 0.537465 1.391957 -8.602983
v 0.537465 1.280331 -8.602983
v 0.748973 1.391957 -8.207279
v 0.748973 1.280331 -8.207279
v 0.712747 1.391957 -8.389401
v 0.712747 1.280331 -8.389401
v 0.365909 1.391957 -7.740514
v 0.365909 1.280331 -7.740514
v -0.063455 1.391957 -8.543798
v -0.063455 1.280331 -8.543798
v 0.008663 1.391957 -8.602983
v 0.008663 1.280331 -8.602983
v -0.122640 1.391957 -8.471681
v -0.122640 1.280331 -8.471681
v 0.739829 1.391957 -8.114434
v 0.739829 1.280331 -8.114434
v 0.537465 1.391957 -7.811575
v 0.537465 1.280331 -7.811575
v 0.609582 1.391957 -7.870760
v 0.609582 1.280331 -7.870760
v 0.712747 1.391957 -8.025157
v 0.712747 1.280331 -8.025157
v -0.202846 1.391957 -8.207279
v -0.202846 1.280331 -8.207279
v 0.008662 1.391957 -7.811575
v 0.008662 1.280331 -7.811575
v -0.193701 1.391957 -8.300125
v -0.193701 1.280331 -8.300125
v 0.609582 1.391957 -8.543798
v 0.609582 1.280331 -8.543798
v 0.455186 1.391957 -7.767596
v 0.455186 1.280331 -7.767596
v 0.668768 1.391957 -8.471681
v 0.668768 1.280331 -8.471681
v -0.166619 1.391957 -8.389402
v -0.166619 1.280331 -8.389402
v 0.455186 1.391957 -8.646962
v 0.455186 1.280331 -8.646962
v 0.365909 1.391957 -8.674045
v 0.365909 1.280331 -8.674045
vt 0.598116 0.932431
vt 0.598116 0.974740
vt 0.595472 0.974740
vt 0.595472 0.932431
vt 0.592828 0.974740
vt 0.592828 0.932431
vt 0.590183 0.974740
vt 0.590183 0.932431
vt 0.587539 0.974740
vt 0.587539 0.932431
vt 0.584895 0.974740
vt 0.584895 0.932431
vt 0.582250 0.974740
vt 0.582250 0.932431
vt 0.579606 0.974740
vt 0.579606 0.932431
vt 0.576962 0.974740
vt 0.576962 0.932431
vt 0.574317 0.974740
vt 0.574317 0.932431
vt 0.571673 0.974740
vt 0.571673 0.932431
vt 0.569029 0.974740
vt 0.569029 0.932431
vt 0.566384 0.974740
vt 0.566384 0.932431
vt 0.563740 0.974740
vt 0.563740 0.932431
vt 0.561096 0.974740
vt 0.561096 0.932431
vt 0.558451 0.974740
vt 0.558451 0.932431
vt 0.555807 0.974740
vt 0.555807 0.932431
vt 0.553163 0.974740
vt 0.553163 0.932431
vt 0.550518 0.974740
vt 0.550518 0.932431
vt 0.547874 0.974740
vt 0.547874 0.932431
vt 0.545230 0.974740
vt 0.545230 0.932431
vt 0.542585 0.974740
vt 0.542585 0.932431
vt 0.539941 0.974740
vt 0.539941 0.932431
vt 0.537297 0.974740
vt 0.537297 0.932431
vt 0.534652 0.974740
vt 0.534652 0.932431
vt 0.532008 0.974740
vt 0.532008 0.932431
vt 0.529364 0.974740
vt 0.529364 0.932431
vt 0.526720 0.974740
vt 0.526720 0.932431
vt 0.524075 0.974740
vt 0.524075 0.932431
vt 0.521431 0.974740
vt 0.521431 0.932431
vt 0.518787 0.974740
vt 0.518787 0.932431
vt 0.538614 0.931195
vt 0.534652 0.931585
vt 0.530691 0.931195
vt 0.526881 0.930039
vt 0.523370 0.928162
vt 0.520292 0.925637
vt 0.517767 0.922559
vt 0.515890 0.919048
vt 0.514734 0.915238
vt 0.514344 0.911277
vt 0.517856 0.911277
vt 0.518179 0.914553
vt 0.519135 0.917704
vt 0.520687 0.920608
vt 0.522776 0.923153
vt 0.525321 0.925242
vt 0.528225 0.926794
vt 0.531376 0.927750
vt 0.534652 0.928073
vt 0.537929 0.927750
vt 0.541080 0.926794
vt 0.543984 0.925242
vt 0.546529 0.923153
vt 0.548618 0.920608
vt 0.550170 0.917704
vt 0.551126 0.914553
vt 0.551449 0.911276
vt 0.554961 0.911276
vt 0.554571 0.915238
vt 0.553415 0.919048
vt 0.551538 0.922559
vt 0.549013 0.925637
vt 0.545935 0.928162
vt 0.542424 0.930039
vt 0.516142 0.974740
vt 0.516142 0.932431
vt 0.513498 0.974740
vt 0.513498 0.932431
vt 0.576962 0.931585
vt 0.580924 0.931195
vt 0.584733 0.930039
vt 0.588244 0.928162
vt 0.591322 0.925637
vt 0.593847 0.922559
vt 0.595724 0.919048
vt 0.596880 0.915238
vt 0.597270 0.911276
vt 0.593758 0.911276
vt 0.593435 0.914553
vt 0.592479 0.917704
vt 0.590927 0.920608
vt 0.588838 0.923153
vt 0.586293 0.925242
vt 0.583389 0.926794
vt 0.580238 0.927750
vt 0.576962 0.928073
vt 0.573685 0.927750
vt 0.570534 0.926794
vt 0.567630 0.925242
vt 0.565085 0.923153
vt 0.562996 0.920608
vt 0.561444 0.917704
vt 0.560488 0.914553
vt 0.560165 0.911277
vt 0.556653 0.911277
vt 0.557043 0.915238
vt 0.558199 0.919048
vt 0.560076 0.922559
vt 0.562601 0.925637
vt 0.565679 0.928162
vt 0.569190 0.930039
vt 0.573000 0.931195
vt 0.574317 0.941147
vt 0.574317 0.966024
vt 0.576962 0.966024
vt 0.576962 0.941147
vt 0.566384 0.941147
vt 0.566384 0.966024
vt 0.569029 0.966024
vt 0.569029 0.941147
vt 0.571673 0.966024
vt 0.571673 0.941147
vt 0.532008 0.941147
vt 0.532008 0.966024
vt 0.534652 0.966024
vt 0.534652 0.941147
vt 0.579606 0.941147
vt 0.579606 0.966024
vt 0.582250 0.966024
vt 0.582250 0.941147
vt 0.584895 0.941147
vt 0.584895 0.966024
vt 0.587539 0.966024
vt 0.587539 0.941147
vt 0.513498 0.941147
vt 0.513498 0.966024
vt 0.516142 0.966024
vt 0.516142 0.941147
vt 0.553163 0.941147
vt 0.553163 0.966024
vt 0.555807 0.966024
vt 0.555807 0.941147
vt 0.526720 0.941147
vt 0.526720 0.966024
vt 0.529364 0.966024
vt 0.529364 0.941147
vt 0.558451 0.966024
vt 0.558451 0.941147
vt 0.518787 0.966024
vt 0.518787 0.941147
vt 0.590183 0.966024
vt 0.590183 0.941147
vt 0.547874 0.941147
vt 0.547874 0.966024
vt 0.550518 0.966024
vt 0.550518 0.941147
vt 0.551126 0.908000
vt 0.550170 0.904849
vt 0.548618 0.901945
vt 0.546529 0.899400
vt 0.543984 0.897311
vt 0.541080 0.895759
vt 0.537929 0.894803
vt 0.534652 0.894480
vt 0.531376 0.894803
vt 0.528225 0.895759
vt 0.525321 0.897311
vt 0.522776 0.899400
vt 0.520687 0.901945
vt 0.519135 0.904849
vt 0.518179 0.908000
vt 0.514734 0.907315
vt 0.515890 0.903505
vt 0.517767 0.899994
vt 0.520292 0.896916
vt 0.523370 0.894391
vt 0.526881 0.892514
vt 0.530690 0.891358
vt 0.534652 0.890968
vt 0.538614 0.891358
vt 0.542424 0.892514
vt 0.545935 0.894391
vt 0.549013 0.896916
vt 0.551538 0.899994
vt 0.553415 0.903505
vt 0.554571 0.907315
vt 0.592828 0.966024
vt 0.592828 0.941147
vt 0.563740 0.941147
vt 0.563740 0.966024
vt 0.521431 0.941147
vt 0.521431 0.966024
vt 0.524075 0.966024
vt 0.524075 0.941147
vt 0.561096 0.941147
vt 0.561096 0.966024
vt 0.545230 0.941147
vt 0.545230 0.966024
vt 0.539941 0.941147
vt 0.539941 0.966024
vt 0.542585 0.966024
vt 0.542585 0.941147
vt 0.595472 0.941147
vt 0.595472 0.966024
vt 0.598116 0.966024
vt 0.598116 0.941147
vt 0.537297 0.966024
vt 0.537297 0.941147
vt 0.560488 0.908000
vt 0.561444 0.904849
vt 0.562996 0.901945
vt 0.565085 0.899400
vt 0.567630 0.897311
vt 0.570534 0.895759
vt 0.573685 0.894803
vt 0.576962 0.894480
vt 0.580238 0.894803
vt 0.583389 0.895759
vt 0.586293 0.897311
vt 0.588838 0.899400
vt 0.590927 0.901945
vt 0.592479 0.904849
vt 0.593435 0.908000
vt 0.596880 0.907315
vt 0.595724 0.903505
vt 0.593847 0.899994
vt 0.591322 0.896916
vt 0.588244 0.894391
vt 0.584733 0.892514
vt 0.580924 0.891358
vt 0.576962 0.890968
vt 0.573000 0.891358
vt 0.569190 0.892514
vt 0.565679 0.894391
vt 0.562601 0.896916
vt 0.560076 0.899994
vt 0.558199 0.903505
vt 0.557043 0.907315
vn 0.0980 0.0000 -0.9952
vn 0.2903 0.0000 -0.9569
vn 0.4714 0.0000 -0.8819
vn 0.6344 0.0000 -0.7730
vn 0.7730 0.0000 -0.6344
vn 0.8819 0.0000 -0.4714
vn 0.9569 0.0000 -0.2903
vn 0.9952 0.0000 -0.0980
vn 0.9952 0.0000 0.0980
vn 0.9569 0.0000 0.2903
vn 0.8819 0.0000 0.4714
vn 0.7730 0.0000 0.6344
vn 0.6344 0.0000 0.7730
vn 0.4714 0.0000 0.8819
vn 0.2903 0.0000 0.9569
vn 0.0980 0.0000 0.9952
vn -0.0980 0.0000 0.9952
vn -0.2903 0.0000 0.9569
vn -0.4714 0.0000 0.8819
vn -0.6344 0.0000 0.7730
vn -0.7730 0.0000 0.6344
vn -0.8819 0.0000 0.4714
vn -0.9569 0.0000 0.2903
vn -0.9952 0.0000 0.0980
vn -0.9952 0.0000 -0.0980
vn -0.9569 0.0000 -0.2903
vn -0.8819 0.0000 -0.4714
vn -0.7730 0.0000 -0.6344
vn -0.6344 0.0000 -0.7730
vn -0.4714 0.0000 -0.8819
vn 0.0000 1.0000 -0.0000
vn -0.2903 0.0000 -0.9569
vn -0.0980 0.0000 -0.9952
vn 0.0000 -1.0000 -0.0000
usemtl Material.001
s off
f 1/1/1 2/2/1 4/3/1 3/4/1
f 3/4/2 4/3/2 6/5/2 5/6/2
f 5/6/3 6/5/3 8/7/3 7/8/3
f 7/8/4 8/7/4 10/9/4 9/10/4
f 9/10/5 10/9/5 12/11/5 11/12/5
f 11/12/6 12/11/6 14/13/6 13/14/6
f 13/14/7 14/13/7 16/15/7 15/16/7
f 15/16/8 16/15/8 18/17/8 17/18/8
f 17/18/9 18/17/9 20/19/9 19/20/9
f 19/20/10 20/19/10 22/21/10 21/22/10
f 21/22/11 22/21/11 24/23/11 23/24/11
f 23/24/12 24/23/12 26/25/12 25/26/12
f 25/26/13 26/25/13 28/27/13 27/28/13
f 27/28/14 28/27/14 30/29/14 29/30/14
f 29/30/15 30/29/15 32/31/15 31/32/15
f 31/32/16 32/31/16 34/33/16 33/34/16
f 33/34/17 34/33/17 36/35/17 35/36/17
f 35/36/18 36/35/18 38/37/18 37/38/18
f 37/38/19 38/37/19 40/39/19 39/40/19
f 39/40/20 40/39/20 42/41/20 41/42/20
f 41/42/21 42/41/21 44/43/21 43/44/21
f 43/44/22 44/43/22 46/45/22 45/46/22
f 45/46/23 46/45/23 48/47/23 47/48/23
f 47/48/24 48/47/24 50/49/24 49/50/24
f 49/50/25 50/49/25 52/51/25 51/52/25
f 51/52/26 52/51/26 54/53/26 53/54/26
f 53/54/27 54/53/27 56/55/27 55/56/27
f 55/56/28 56/55/28 58/57/28 57/58/28
f 57/58/29 58/57/29 60/59/29 59/60/29
f 59/60/30 60/59/30 62/61/30 61/62/30
f 4/63/31 2/64/31 64/65/31 62/66/31 60/67/31 58/68/31 56/69/31 54/70/31 52/71/31 50/72/31 111/73/31 115/74/31 123/75/31 101/76/31 97/77/31 99/78/31 71/79/31 69/80/31 67/81/31 127/82/31 125/83/31 89/84/31 117/85/31 121/86/31 93/87/31 87/88/31 91/89/31 18/90/31 16/91/31 14/92/31 12/93/31 10/94/31 8/95/31 6/96/31
f 61/62/32 62/61/32 64/97/32 63/98/32
f 63/98/33 64/97/33 2/99/33 1/100/33
f 1/101/34 3/102/34 5/103/34 7/104/34 9/105/34 11/106/34 13/107/34 15/108/34 17/109/34 92/110/34 88/111/34 94/112/34 122/113/34 118/114/34 90/115/34 126/116/34 128/117/34 68/118/34 70/119/34 72/120/34 100/121/34 98/122/34 102/123/34 124/124/34 116/125/34 112/126/34 49/127/34 51/128/34 53/129/34 55/130/34 57/131/34 59/132/34 61/133/34 63/134/34
f 104/135/25 103/136/25 91/137/25 92/138/25
f 108/139/28 107/140/28 65/141/28 66/142/28
f 66/142/27 65/141/27 109/143/27 110/144/27
f 116/145/9 115/146/9 111/147/9 112/148/9
f 88/149/23 87/150/23 93/151/23 94/152/23
f 92/138/24 91/137/24 87/150/24 88/149/24
f 122/153/21 121/154/21 117/155/21 118/156/21
f 68/157/16 67/158/16 69/159/16 70/160/16
f 82/161/1 81/162/1 83/163/1 84/164/1
f 102/165/11 101/166/11 123/167/11 124/168/11
f 84/164/33 83/163/33 95/169/33 96/170/33
f 70/160/15 69/159/15 71/171/15 72/172/15
f 118/156/20 117/155/20 89/173/20 90/174/20
f 114/175/3 113/176/3 85/177/3 86/178/3
f 18/90/31 91/89/31 103/179/31 109/180/31 65/181/31 107/182/31 105/183/31 119/184/31 95/185/31 83/186/31 81/187/31 85/188/31 113/189/31 79/190/31 75/191/31 73/192/31 77/193/31 111/73/31 50/72/31 48/194/31 46/195/31 44/196/31 42/197/31 40/198/31 38/199/31 36/200/31 34/201/31 32/202/31 30/203/31 28/204/31 26/205/31 24/206/31 22/207/31 20/208/31
f 90/174/19 89/173/19 125/209/19 126/210/19
f 106/211/29 105/212/29 107/140/29 108/139/29
f 100/213/13 99/214/13 97/215/13 98/216/13
f 124/168/10 123/167/10 115/146/10 116/145/10
f 120/217/30 119/218/30 105/212/30 106/211/30
f 80/219/4 79/220/4 113/176/4 114/175/4
f 74/221/6 73/222/6 75/223/6 76/224/6
f 128/225/17 127/226/17 67/227/17 68/228/17
f 94/152/22 93/151/22 121/154/22 122/153/22
f 112/148/8 111/147/8 77/229/8 78/230/8
f 110/144/26 109/143/26 103/136/26 104/135/26
f 86/178/2 85/177/2 81/162/2 82/161/2
f 72/172/14 71/171/14 99/214/14 100/213/14
f 126/210/18 125/209/18 127/226/18 128/225/18
f 96/170/32 95/169/32 119/218/32 120/217/32
f 78/230/7 77/229/7 73/222/7 74/221/7
f 98/216/12 97/215/12 101/166/12 102/165/12
f 49/127/34 112/126/34 78/231/34 74/232/34 76/233/34 80/234/34 114/235/34 86/236/34 82/237/34 84/238/34 96/239/34 120/240/34 106/241/34 108/242/34 66/243/34 110/244/34 104/245/34 92/110/34 17/109/34 19/246/34 21/247/34 23/248/34 25/249/34 27/250/34 29/251/34 31/252/34 33/253/34 35/254/34 37/255/34 39/256/34 41/257/34 43/258/34 45/259/34 47/260/34
f 76/224/5 75/223/5 79/220/5 80/219/5
o Cube_Cube.002
v 1.137825 -0.142531 -9.001643
v 1.126195 0.273121 -8.897354
v 1.215491 -0.190695 -9.334146
v 1.180000 0.512921 -9.179387
v 1.351086 -0.044966 -8.858506
v 1.312009 0.260298 -8.825526
v 1.557116 -0.186952 -9.239123
v 1.490173 0.491516 -9.059486
v 1.274664 0.488965 -9.346022
v 1.291508 -0.113043 -9.497068
v 1.580429 -0.108524 -9.390394
v 1.529556 0.471374 -9.247491
v 1.321614 0.536185 -9.513843
v 1.340535 -0.140068 -9.683517
v 1.600145 -0.181415 -9.569825
v 1.613210 0.516062 -9.401123
v 1.426061 0.150894 -9.948993
v 1.431430 -0.040984 -9.997135
v 1.575886 -0.050953 -9.941294
v 1.570518 0.140925 -9.893150
v 1.137825 -0.142531 -7.425427
v 1.126195 0.273121 -7.529716
v 1.215491 -0.190695 -7.092924
v 1.180000 0.512921 -7.247684
v 1.351086 -0.044966 -7.568564
v 1.312009 0.260298 -7.601545
v 1.557116 -0.186952 -7.187947
v 1.490173 0.491516 -7.367585
v 1.274664 0.488965 -7.081048
v 1.291508 -0.113043 -6.930002
v 1.580429 -0.108524 -7.036676
v 1.529556 0.471374 -7.179580
v 1.321614 0.536185 -6.913229
v 1.340535 -0.140068 -6.743554
v 1.600145 -0.181415 -6.857246
v 1.613210 0.516062 -7.025948
v 1.426061 0.150894 -6.478078
v 1.431430 -0.040984 -6.429935
v 1.575886 -0.050953 -6.485777
v 1.570518 0.140925 -6.533920
vt 0.040650 0.321312
vt 0.060236 0.321312
vt 0.060236 0.340897
vt 0.040650 0.340897
vt 0.079821 0.360482
vt 0.060236 0.360482
vt 0.060236 0.360482
vt 0.079821 0.360482
vt 0.040650 0.360482
vt 0.060236 0.380068
vt 0.040650 0.380068
vt 0.060236 0.399653
vt 0.040650 0.399653
vt 0.021065 0.360482
vt 0.021065 0.380068
vt 0.079821 0.380068
vt 0.040650 0.360482
vt 0.021065 0.360482
vt 0.021065 0.360482
vt 0.040650 0.360482
vt 0.060236 0.340897
vt 0.040650 0.340897
vt 0.079821 0.360482
vt 0.060236 0.360482
vt 0.060236 0.360482
vt 0.079821 0.360482
vt 0.060236 0.340897
vt 0.040650 0.340897
vt 0.040650 0.340897
vt 0.060236 0.340897
vt 0.040650 0.360482
vt 0.021065 0.360482
vt 0.040650 0.321312
vt 0.040650 0.340897
vt 0.060236 0.340897
vt 0.060236 0.321312
vt 0.079821 0.360482
vt 0.079821 0.360482
vt 0.060236 0.360482
vt 0.060236 0.360482
vt 0.040650 0.360482
vt 0.040650 0.380068
vt 0.060236 0.380068
vt 0.040650 0.399653
vt 0.060236 0.399653
vt 0.021065 0.360482
vt 0.021065 0.380068
vt 0.079821 0.380068
vt 0.040650 0.360482
vt 0.040650 0.360482
vt 0.021065 0.360482
vt 0.021065 0.360482
vt 0.040650 0.340897
vt 0.060236 0.340897
vt 0.079821 0.360482
vt 0.079821 0.360482
vt 0.060236 0.360482
vt 0.060236 0.360482
vt 0.040650 0.340897
vt 0.060236 0.340897
vt 0.040650 0.340897
vt 0.040650 0.360482
vt 0.060236 0.340897
vt 0.021065 0.360482
vn -0.9783 0.0068 -0.2072
vn 0.1013 0.9912 -0.0850
vn 0.8492 -0.0225 0.5276
vn -0.4319 -0.1979 0.8799
vn 0.0558 -0.9590 0.2779
vn -0.1852 0.7658 0.6158
vn -0.1578 -0.9597 0.2324
vn -0.8904 0.0697 -0.4498
vn 0.9811 0.0435 0.1888
vn 0.1412 -0.9037 -0.4043
vn 0.2826 0.7508 -0.5970
vn -0.0346 0.9645 0.2617
vn -0.9651 0.0381 -0.2593
vn 0.9530 -0.0449 0.2996
vn 0.3645 0.2362 -0.9007
vn -0.9630 0.0399 -0.2665
vn 0.9967 0.0110 -0.0804
vn 0.0124 -0.9485 -0.3166
vn -0.9783 0.0068 0.2072
vn 0.1013 0.9912 0.0850
vn 0.8492 -0.0225 -0.5276
vn -0.4319 -0.1979 -0.8799
vn 0.0558 -0.9590 -0.2779
vn -0.1852 0.7658 -0.6158
vn -0.1578 -0.9597 -0.2324
vn -0.8904 0.0697 0.4498
vn 0.9811 0.0435 -0.1888
vn 0.1412 -0.9037 0.4043
vn 0.2826 0.7508 0.5970
vn -0.0346 0.9645 -0.2617
vn -0.9651 0.0381 0.2593
vn 0.9530 -0.0449 -0.2996
vn 0.3645 0.2362 0.9008
vn -0.9630 0.0399 0.2665
vn 0.9967 0.0110 0.0804
vn 0.0124 -0.9485 0.3166
usemtl Material.001
s off
f 129/261/35 130/262/35 132/263/35 131/264/35
f 132/265/36 136/266/36 140/267/36 137/268/36
f 135/269/37 136/266/37 134/270/37 133/271/37
f 133/271/38 134/270/38 130/272/38 129/273/38
f 131/274/39 135/269/39 133/271/39 129/275/39
f 136/266/40 132/265/40 130/276/40 134/270/40
f 139/277/41 138/278/41 142/279/41 143/280/41
f 131/264/42 132/263/42 137/281/42 138/282/42
f 136/266/43 135/269/43 139/277/43 140/267/43
f 135/269/44 131/274/44 138/278/44 139/277/44
f 141/283/45 144/284/45 148/285/45 145/286/45
f 137/268/46 140/267/46 144/284/46 141/283/46
f 138/282/47 137/281/47 141/287/47 142/288/47
f 140/267/48 139/277/48 143/280/48 144/284/48
f 146/289/49 145/290/49 148/285/49 147/291/49
f 142/288/50 141/287/50 145/290/50 146/289/50
f 144/284/51 143/280/51 147/291/51 148/285/51
f 143/280/52 142/279/52 146/292/52 147/291/52
f 149/293/53 151/294/53 152/295/53 150/296/53
f 152/297/54 157/298/54 160/299/54 156/300/54
f 155/301/55 153/302/55 154/303/55 156/300/55
f 153/302/56 149/304/56 150/305/56 154/303/56
f 151/306/57 149/307/57 153/302/57 155/301/57
f 156/300/58 154/303/58 150/308/58 152/297/58
f 159/309/59 163/310/59 162/311/59 158/312/59
f 151/294/60 158/313/60 157/314/60 152/295/60
f 156/300/61 160/299/61 159/309/61 155/301/61
f 155/301/62 159/309/62 158/312/62 151/306/62
f 161/315/63 165/316/63 168/317/63 164/318/63
f 157/298/64 161/315/64 164/318/64 160/299/64
f 158/313/65 162/319/65 161/320/65 157/314/65
f 160/299/66 164/318/66 163/310/66 159/309/66
f 166/321/67 167/322/67 168/317/67 165/323/67
f 162/319/68 166/321/68 165/323/68 161/320/68
f 164/318/69 168/317/69 167/322/69 163/310/69
f 163/310/70 167/322/70 166/324/70 162/311/70
