# Blender v2.80 (sub 75) OBJ File: 'PowerUp_lapu.blend'
# www.blender.org
mtllib PowerUp_Confused_lapu.mtl
o Plane
v -0.738976 -0.111350 0.725713
v 0.825818 -0.130583 0.788731
v -0.751592 -0.125038 -0.707967
v 0.682163 -0.110315 -0.763842
v -1.201839 -0.119641 0.063937
v 0.028281 -0.105512 0.918263
v 1.019584 -0.118826 -0.109641
v -0.105623 -0.133027 -1.013212
v 0.000000 -0.119641 0.000000
v -1.003478 -0.109264 0.395504
v 0.514572 -0.117360 0.938176
v 0.791877 -0.099848 -0.505201
v -0.511913 -0.128225 -0.905220
v -1.056281 -0.117680 -0.475773
v -0.482650 -0.113141 0.815772
v 1.181386 -0.119214 0.311818
v 0.322702 -0.123116 -1.014388
v 0.000000 -0.119641 -0.500000
v 0.000000 -0.119641 0.500000
v -0.500000 -0.119641 0.000000
v 0.500000 -0.119641 0.000000
v 0.500000 -0.119641 0.500000
v -0.500000 -0.119641 0.500000
v -0.500000 -0.119641 -0.500000
v 0.500000 -0.119641 -0.500000
v -0.609467 0.034786 0.484399
v 0.458501 0.034786 0.484399
v -0.609467 0.034786 -0.632568
v 0.458501 0.034786 -0.632568
v -0.783826 0.034786 -0.074084
v -0.075483 0.034786 0.634258
v 0.632860 0.034786 -0.074084
v -0.075483 0.034786 -0.782427
v -0.783826 0.034786 0.280087
v 0.278688 0.034786 0.634258
v 0.632860 0.034786 -0.428255
v -0.429654 0.034786 -0.782427
v -0.783826 0.034786 -0.428255
v -0.429654 0.034786 0.634258
v 0.632860 0.034786 0.280087
v 0.278688 0.034786 -0.782427
v -0.075483 0.516351 -0.683187
v 0.533620 0.516351 -0.074084
v -0.075483 0.516351 0.535019
v -0.684586 0.516351 -0.074084
v 0.383690 0.516351 -0.554324
v -0.534656 0.516351 -0.554324
v 0.383690 0.516351 0.406155
v -0.534656 0.516351 0.406155
v -0.560975 0.229102 0.433682
v 0.410009 0.229102 0.433682
v -0.560975 0.229102 -0.581850
v 0.410009 0.229102 -0.581850
v -0.719499 0.229102 -0.074084
v -0.075483 0.229102 0.569932
v 0.568533 0.229102 -0.074084
v -0.075483 0.229102 -0.718100
v -0.420533 0.801325 0.286796
v -0.719499 0.229102 0.247924
v 0.246525 0.229102 0.569932
v 0.568533 0.229102 -0.396092
v -0.397491 0.229102 -0.718100
v -0.719499 0.229102 -0.396092
v -0.397491 0.229102 0.569932
v 0.568533 0.229102 0.247924
v 0.246525 0.229102 -0.718100
v 0.269566 0.801325 0.286796
v -0.420533 0.801325 -0.434965
v 0.269566 0.801325 -0.434965
v -0.533199 0.801325 -0.074084
v -0.075483 0.801325 0.383632
v 0.382233 0.801325 -0.074084
v -0.075483 0.801325 -0.531800
v -0.155599 0.990755 0.009708
v -0.684586 0.516351 0.230467
v 0.229068 0.516351 0.535019
v 0.533620 0.516351 -0.378636
v -0.380035 0.516351 -0.683187
v -0.684586 0.516351 -0.378636
v -0.380035 0.516351 0.535019
v 0.533620 0.516351 0.230467
v 0.229068 0.516351 -0.683187
v -0.075483 0.943135 -0.325205
v 0.175637 0.943135 -0.074084
v -0.075483 0.943135 0.177036
v -0.326603 0.943135 -0.074084
v 0.113824 0.943135 -0.272077
v -0.264790 0.943135 -0.272077
v 0.113824 0.943135 0.123909
v -0.264790 0.943135 0.123909
v -0.533199 0.801325 0.154774
v 0.153375 0.801325 0.383632
v 0.382233 0.801325 -0.302942
v -0.304341 0.801325 -0.531800
v -0.533199 0.801325 -0.302942
v -0.304341 0.801325 0.383632
v 0.382233 0.801325 0.154774
v 0.153375 0.801325 -0.531800
v 0.004633 0.990755 0.009708
v -0.155599 0.990755 -0.157876
v 0.004633 0.990755 -0.157876
v -0.181759 0.990755 -0.074084
v -0.075483 0.990755 0.032192
v 0.030793 0.990755 -0.074084
v -0.075483 0.990755 -0.180360
v -0.075483 0.990755 -0.074084
v -0.326603 0.943135 0.051476
v 0.050077 0.943135 0.177036
v 0.175637 0.943135 -0.199644
v -0.201043 0.943135 -0.325205
v -0.326603 0.943135 -0.199644
v -0.201043 0.943135 0.177036
v 0.175637 0.943135 0.051476
v 0.050077 0.943135 -0.325205
v -0.181759 0.990755 -0.020946
v -0.022345 0.990755 0.032192
v 0.030793 0.990755 -0.127222
v -0.128621 0.990755 -0.180360
v -0.181759 0.990755 -0.127222
v -0.128621 0.990755 0.032192
v 0.030793 0.990755 -0.020946
v -0.022345 0.990755 -0.180360
v -0.075483 0.990755 -0.127222
v -0.075483 0.990755 -0.020946
v -0.128621 0.990755 -0.074084
v -0.022345 0.990755 -0.074084
v -0.022345 0.990755 -0.020946
v -0.128621 0.990755 -0.020946
v -0.128621 0.990755 -0.127222
v -0.022345 0.990755 -0.127222
vt 0.826623 0.959505
vt 0.826623 0.971148
vt 0.838265 0.971148
vt 0.838265 0.959505
vt 0.803338 0.959505
vt 0.803338 0.971148
vt 0.814980 0.971148
vt 0.814980 0.959505
vt 0.803338 0.936220
vt 0.803338 0.947863
vt 0.814980 0.947863
vt 0.814980 0.936220
vt 0.826623 0.936220
vt 0.826623 0.947863
vt 0.838265 0.947863
vt 0.838265 0.936220
vt 0.814980 0.924577
vt 0.826623 0.924577
vt 0.838265 0.924577
vt 0.791695 0.936220
vt 0.791695 0.947863
vt 0.791695 0.924577
vt 0.803338 0.924577
vt 0.791695 0.959505
vt 0.791695 0.971148
vt 0.838265 0.936220
vt 0.838265 0.947863
vt 0.838265 0.947863
vt 0.838265 0.936220
vt 0.814980 0.924577
vt 0.826623 0.924577
vt 0.826623 0.924577
vt 0.814980 0.924577
vt 0.803338 0.924577
vt 0.803338 0.924577
vt 0.791695 0.947863
vt 0.791695 0.936220
vt 0.791695 0.936220
vt 0.791695 0.947863
vt 0.838265 0.971148
vt 0.826623 0.971148
vt 0.826623 0.971148
vt 0.838265 0.971148
vt 0.791695 0.959505
vt 0.791695 0.959505
vt 0.838265 0.924577
vt 0.838265 0.924577
vt 0.803338 0.971148
vt 0.791695 0.971148
vt 0.791695 0.971148
vt 0.803338 0.971148
vt 0.791695 0.924577
vt 0.791695 0.924577
vt 0.838265 0.959505
vt 0.838265 0.959505
vt 0.814980 0.971148
vt 0.814980 0.971148
vt 0.803338 0.924577
vt 0.791695 0.924577
vt 0.838265 0.971148
vt 0.838265 0.959505
vt 0.791695 0.959505
vt 0.791695 0.971148
vt 0.838265 0.924577
vt 0.826623 0.924577
vt 0.803338 0.971148
vt 0.814980 0.971148
vt 0.791695 0.936220
vt 0.826623 0.971148
vt 0.838265 0.947863
vt 0.838265 0.936220
vt 0.814980 0.924577
vt 0.791695 0.947863
vt 0.838265 0.971148
vt 0.838265 0.959505
vt 0.838265 0.947863
vt 0.791695 0.971148
vt 0.803338 0.971148
vt 0.826623 0.924577
vt 0.814980 0.924577
vt 0.791695 0.936220
vt 0.791695 0.947863
vt 0.791695 0.959505
vt 0.826623 0.971148
vt 0.803338 0.924577
vt 0.838265 0.936220
vt 0.838265 0.924577
vt 0.791695 0.924577
vt 0.814980 0.971148
vt 0.791695 0.936220
vt 0.791695 0.947863
vt 0.838265 0.924577
vt 0.826623 0.924577
vt 0.826623 0.971148
vt 0.838265 0.971148
vt 0.814980 0.971148
vt 0.791695 0.924577
vt 0.838265 0.936220
vt 0.838265 0.947863
vt 0.803338 0.924577
vt 0.814980 0.924577
vt 0.791695 0.959505
vt 0.791695 0.971148
vt 0.803338 0.971148
vt 0.838265 0.959505
vt 0.838265 0.924577
vt 0.826623 0.924577
vt 0.803338 0.924577
vt 0.791695 0.924577
vt 0.838265 0.971148
vt 0.838265 0.959505
vt 0.791695 0.959505
vt 0.791695 0.971148
vt 0.803338 0.971148
vt 0.814980 0.971148
vt 0.838265 0.947863
vt 0.791695 0.947863
vt 0.814980 0.924577
vt 0.791695 0.936220
vt 0.838265 0.936220
vt 0.826623 0.971148
vt 0.826623 0.959505
vt 0.803338 0.959505
vt 0.814980 0.959505
vt 0.803338 0.936220
vt 0.814980 0.936220
vt 0.814980 0.947863
vt 0.803338 0.947863
vt 0.826623 0.936220
vt 0.826623 0.947863
vn 0.0502 -0.9987 -0.0006
vn -0.0024 -0.9997 0.0242
vn 0.0000 -1.0000 0.0000
vn 0.0009 -1.0000 -0.0006
vn -0.0124 -0.9997 0.0198
vn -0.0186 -0.9997 -0.0169
vn -0.0091 -0.9999 0.0146
vn -0.0200 -0.9997 0.0156
vn 0.0047 -0.9996 0.0278
vn 0.0006 -0.9997 0.0253
vn -0.0017 -1.0000 -0.0021
vn 0.0107 -0.9999 0.0135
vn 0.0216 -0.9994 -0.0267
vn 0.9493 0.3143 0.0000
vn 0.0000 0.3143 0.9493
vn -0.9493 0.3143 0.0000
vn 0.6023 0.3389 -0.7227
vn 0.7159 0.3381 0.6109
vn -0.6023 0.3389 -0.7227
vn -0.6023 0.3389 0.7227
vn 0.7159 0.3381 -0.6109
vn -0.7159 0.3381 -0.6109
vn 0.6023 0.3389 0.7227
vn 0.0000 0.3143 -0.9493
vn -0.7159 0.3381 0.6109
vn -0.2575 0.8418 0.4743
vn -0.4672 0.6752 -0.5708
vn 0.2517 0.9444 0.2116
vn -0.4124 0.9087 -0.0652
vn 0.3196 0.8301 -0.4570
vn -0.3894 0.9158 0.0988
vn -0.0703 0.8447 0.5306
vn 0.0021 0.8958 0.4444
vn 0.3116 0.9480 -0.0645
vn 0.4457 0.8880 -0.1129
vn -0.0112 0.8175 -0.5758
vn -0.3883 0.8634 0.3222
vn -0.0898 0.7413 -0.6651
vn 0.2013 0.9359 0.2889
vn -0.4300 0.7617 -0.4848
vn 0.4529 0.8406 -0.2969
vn -0.6347 0.1311 0.7616
vn 0.7541 0.1308 -0.6436
vn -0.7541 0.1308 -0.6436
vn 0.6347 0.1311 0.7616
vn 0.0000 0.1207 -0.9927
vn -0.7541 0.1308 0.6436
vn 0.9927 0.1207 0.0000
vn 0.0000 0.1207 0.9927
vn -0.9927 0.1207 0.0000
vn 0.6347 0.1311 -0.7616
vn 0.7541 0.1308 0.6436
vn -0.6347 0.1311 -0.7616
vn 0.6590 0.4995 -0.5624
vn 0.8831 0.4691 0.0000
vn -0.5543 0.5005 -0.6650
vn 0.0000 0.4691 0.8831
vn -0.8831 0.4691 0.0000
vn 0.5543 0.5005 -0.6650
vn 0.6590 0.4995 0.5624
vn -0.5543 0.5005 0.6650
vn -0.6590 0.4995 0.5624
vn 0.0000 0.4691 -0.8831
vn -0.6590 0.4995 -0.5624
vn 0.5543 0.5005 0.6650
vn -0.5659 0.8245 0.0000
vn 0.3415 0.8458 0.4098
vn 0.3415 0.8458 -0.4098
vn 0.0000 0.8245 -0.5659
vn -0.4066 0.8451 0.3470
vn 0.4066 0.8451 0.3470
vn 0.5659 0.8245 0.0000
vn -0.3415 0.8458 0.4098
vn 0.0000 0.8245 0.5659
vn -0.4066 0.8451 -0.3470
vn -0.3415 0.8458 -0.4098
vn 0.4066 0.8451 -0.3470
vn 0.1851 0.9573 0.2221
vn -0.1851 0.9573 0.2221
vn 0.2205 0.9570 -0.1882
vn -0.2205 0.9570 -0.1882
vn -0.1851 0.9573 -0.2221
vn 0.0000 0.9500 -0.3123
vn 0.3123 0.9500 0.0000
vn -0.3123 0.9500 0.0000
vn 0.0000 0.9500 0.3123
vn 0.1851 0.9573 -0.2221
vn -0.2205 0.9570 0.1882
vn 0.2205 0.9570 0.1882
vn 0.0000 1.0000 0.0000
usemtl Material
s off
f 25/1/1 17/2/1 4/3/1 12/4/1
f 24/5/2 13/6/2 8/7/2 18/8/2
f 23/9/3 20/10/3 9/11/3 19/12/3
f 22/13/4 21/14/4 7/15/4 16/16/4
f 19/12/3 9/11/3 21/14/3 22/13/3
f 6/17/5 19/12/5 22/13/5 11/18/5
f 11/18/6 22/13/6 16/16/6 2/19/6
f 10/20/7 5/21/7 20/10/7 23/9/7
f 1/22/8 10/20/8 23/9/8 15/23/8
f 15/23/9 23/9/9 19/12/9 6/17/9
f 14/24/10 3/25/10 13/6/10 24/5/10
f 5/21/11 14/24/11 24/5/11 20/10/11
f 20/10/3 24/5/3 18/8/3 9/11/3
f 18/8/12 8/7/12 17/2/12 25/1/12
f 9/11/3 18/8/3 25/1/3 21/14/3
f 21/14/13 25/1/13 12/4/13 7/15/13
f 40/26/14 32/27/14 56/28/14 65/29/14
f 31/30/15 35/31/15 60/32/15 55/33/15
f 39/34/15 31/30/15 55/33/15 64/35/15
f 30/36/16 34/37/16 59/38/16 54/39/16
f 29/40/17 41/41/17 66/42/17 53/43/17
f 38/44/16 30/36/16 54/39/16 63/45/16
f 27/46/18 40/26/18 65/29/18 51/47/18
f 37/48/19 28/49/19 52/50/19 62/51/19
f 26/52/20 39/34/20 64/35/20 50/53/20
f 36/54/21 29/40/21 53/43/21 61/55/21
f 28/49/22 38/44/22 63/45/22 52/50/22
f 35/31/23 27/46/23 51/47/23 60/32/23
f 33/56/24 37/48/24 62/51/24 57/57/24
f 34/37/25 26/52/25 50/53/25 59/38/25
f 41/41/24 33/56/24 57/57/24 66/42/24
f 32/27/14 36/54/14 61/55/14 56/28/14
f 1/22/26 15/23/26 39/34/26 26/52/26
f 13/6/27 3/25/27 28/49/27 37/48/27
f 2/19/28 16/16/28 40/26/28 27/46/28
f 14/24/29 5/21/29 30/36/29 38/44/29
f 4/3/30 17/2/30 41/41/30 29/40/30
f 5/21/31 10/20/31 34/37/31 30/36/31
f 15/23/32 6/17/32 31/30/32 39/34/32
f 6/17/33 11/18/33 35/31/33 31/30/33
f 16/16/34 7/15/34 32/27/34 40/26/34
f 7/15/35 12/4/35 36/54/35 32/27/35
f 17/2/36 8/7/36 33/56/36 41/41/36
f 10/20/37 1/22/37 26/52/37 34/37/37
f 8/7/38 13/6/38 37/48/38 33/56/38
f 11/18/39 2/19/39 27/46/39 35/31/39
f 3/25/40 14/24/40 38/44/40 28/49/40
f 12/4/41 4/3/41 29/40/41 36/54/41
f 50/53/42 64/35/42 80/58/42 49/59/42
f 61/55/43 53/43/43 46/60/43 77/61/43
f 52/50/44 63/45/44 79/62/44 47/63/44
f 60/32/45 51/47/45 48/64/45 76/65/45
f 57/57/46 62/51/46 78/66/46 42/67/46
f 59/38/47 50/53/47 49/59/47 75/68/47
f 66/42/46 57/57/46 42/67/46 82/69/46
f 56/28/48 61/55/48 77/61/48 43/70/48
f 65/29/48 56/28/48 43/70/48 81/71/48
f 55/33/49 60/32/49 76/65/49 44/72/49
f 64/35/49 55/33/49 44/72/49 80/58/49
f 54/39/50 59/38/50 75/68/50 45/73/50
f 53/43/51 66/42/51 82/69/51 46/60/51
f 63/45/50 54/39/50 45/73/50 79/62/50
f 51/47/52 65/29/52 81/71/52 48/64/52
f 62/51/53 52/50/53 47/63/53 78/66/53
f 77/61/54 46/60/54 69/74/54 93/75/54
f 43/70/55 77/61/55 93/75/55 72/76/55
f 78/66/56 47/63/56 68/77/56 94/78/56
f 44/72/57 76/65/57 92/79/57 71/80/57
f 45/73/58 75/68/58 91/81/58 70/82/58
f 79/62/58 45/73/58 70/82/58 95/83/58
f 46/60/59 82/69/59 98/84/59 69/74/59
f 80/58/57 44/72/57 71/80/57 96/85/57
f 48/64/60 81/71/60 97/86/60 67/87/60
f 81/71/55 43/70/55 72/76/55 97/86/55
f 49/59/61 80/58/61 96/85/61 58/88/61
f 75/68/62 49/59/62 58/88/62 91/81/62
f 82/69/63 42/67/63 73/89/63 98/84/63
f 47/63/64 79/62/64 95/83/64 68/77/64
f 76/65/65 48/64/65 67/87/65 92/79/65
f 42/67/63 78/66/63 94/78/63 73/89/63
f 70/82/66 91/81/66 107/90/66 86/91/66
f 92/79/67 67/87/67 89/92/67 108/93/67
f 69/74/68 98/84/68 114/94/68 87/95/68
f 98/84/69 73/89/69 83/96/69 114/94/69
f 91/81/70 58/88/70 90/97/70 107/90/70
f 67/87/71 97/86/71 113/98/71 89/92/71
f 97/86/72 72/76/72 84/99/72 113/98/72
f 58/88/73 96/85/73 112/100/73 90/97/73
f 96/85/74 71/80/74 85/101/74 112/100/74
f 68/77/75 95/83/75 111/102/75 88/103/75
f 95/83/66 70/82/66 86/91/66 111/102/66
f 73/89/69 94/78/69 110/104/69 83/96/69
f 72/76/72 93/75/72 109/105/72 84/99/72
f 94/78/76 68/77/76 88/103/76 110/104/76
f 71/80/74 92/79/74 108/93/74 85/101/74
f 93/75/77 69/74/77 87/95/77 109/105/77
f 108/93/78 89/92/78 99/106/78 116/107/78
f 90/97/79 112/100/79 120/108/79 74/109/79
f 109/105/80 87/95/80 101/110/80 117/111/80
f 88/103/81 111/102/81 119/112/81 100/113/81
f 110/104/82 88/103/82 100/113/82 118/114/82
f 83/96/83 110/104/83 118/114/83 105/115/83
f 84/99/84 109/105/84 117/111/84 104/116/84
f 111/102/85 86/91/85 102/117/85 119/112/85
f 85/101/86 108/93/86 116/107/86 103/118/86
f 112/100/86 85/101/86 103/118/86 120/108/86
f 86/91/85 107/90/85 115/119/85 102/117/85
f 113/98/84 84/99/84 104/116/84 121/120/84
f 87/95/87 114/94/87 122/121/87 101/110/87
f 107/90/88 90/97/88 74/109/88 115/119/88
f 114/94/83 83/96/83 105/115/83 122/121/83
f 89/92/89 113/98/89 121/120/89 99/106/89
f 130/122/90 117/111/90 101/110/90 122/121/90
f 129/123/90 123/124/90 105/115/90 118/114/90
f 128/125/90 124/126/90 106/127/90 125/128/90
f 127/129/90 121/120/90 104/116/90 126/130/90
f 124/126/90 127/129/90 126/130/90 106/127/90
f 103/118/90 116/107/90 127/129/90 124/126/90
f 116/107/90 99/106/90 121/120/90 127/129/90
f 115/119/90 128/125/90 125/128/90 102/117/90
f 74/109/90 120/108/90 128/125/90 115/119/90
f 120/108/90 103/118/90 124/126/90 128/125/90
f 119/112/90 129/123/90 118/114/90 100/113/90
f 102/117/90 125/128/90 129/123/90 119/112/90
f 125/128/90 106/127/90 123/124/90 129/123/90
f 123/124/90 130/122/90 122/121/90 105/115/90
f 106/127/90 126/130/90 130/122/90 123/124/90
f 126/130/90 104/116/90 117/111/90 130/122/90
